<?xml version="1.0" encoding="utf-8"?>
<!-- Generator: Adobe Illustrator 20.1.0, SVG Export Plug-In . SVG Version: 6.00 Build 0)  -->
<svg version="1.1" id="Layer_1" xmlns="http://www.w3.org/2000/svg" xmlns:xlink="http://www.w3.org/1999/xlink" x="0px" y="0px"
	 viewBox="0 0 1439 200" style="enable-background:new 0 0 1439 200;" xml:space="preserve">
<style type="text/css">
	.st0{fill:none;}
	.st1{opacity:0.76;fill:#E1E2E2;enable-background:new    ;}
	.st2{fill:#FFFFFF;}
	.st3{fill:url(#SVGID_1_);}
	.st4{fill:url(#SVGID_2_);}
	.st5{fill:#E1E2E2;}
	.st6{fill:url(#SVGID_3_);}
	.st7{fill:url(#SVGID_4_);}
	.st8{opacity:0.52;}
	.st9{opacity:0.52;fill:url(#SVGID_5_);enable-background:new    ;}
	.st10{opacity:0.5;fill:#283039;enable-background:new    ;}
	.st11{fill:url(#SVGID_6_);}
	.st12{fill:url(#SVGID_7_);}
	.st13{fill:url(#SVGID_8_);}
	.st14{fill:url(#SVGID_9_);}
	.st15{fill:#DCDDDD;}
	.st16{fill:url(#SVGID_10_);}
	.st17{fill:url(#SVGID_11_);}
	.st18{opacity:0.48;}
	.st19{opacity:0.48;fill:#FFFFFF;enable-background:new    ;}
	.st20{fill:url(#SVGID_12_);}
	.st21{fill:#D8D9D9;}
	.st22{fill:#C9C9CA;}
	.st23{fill:#BDBDBF;}
	.st24{fill:#F2F2F2;}
	.st25{fill:#D4D5D5;}
	.st26{fill:url(#SVGID_13_);}
	.st27{fill:url(#SVGID_14_);}
	.st28{fill:#E7E8E8;}
	.st29{fill:url(#SVGID_15_);}
	.st30{fill:url(#SVGID_16_);}
	.st31{fill:#F4F4F4;}
	.st32{fill:#5B606B;}
	.st33{fill:#4D525B;}
	.st34{fill:#323948;}
	.st35{fill:#D84F55;}
	.st36{fill:#CE2C11;}
	.st37{fill:#231F20;}
	.st38{fill:#933A41;}
	.st39{fill:#6E757F;}
	.st40{fill:#F08E30;}
</style>
<rect x="-1" class="st0" width="1440" height="200"/>
<path class="st1" d="M430.8,61.4c-0.7-0.4-4.6-1.4-4.6-1.4s-1.9-1-2.6-1c-0.3,0-2.5,0.2-5.4,0.8c-3.3,0.6-7.6,1.7-12,3.4l-32.2,6.3
	c-1.6-0.3-2.7-0.7-2.7-0.7s-0.8,0.1,0,0.5c0.2,0.1,0.5,0.3,0.8,0.5l-2.8,0.5c0,0-2.5-0.8-4-1.7C363.8,67.8,353,62,353,62l-4.5,0.9
	l6.8,10c0,0-1.7,0.1-2.1,0.7c-0.4,0.6-0.1,1.1-0.1,1.1l-2.1,0.8l0.3,0.3l2.3-0.4c0,0,0.8,0.7,1.6,0.7c0.9,0,21.5,0.3,23.1,0.1
	c1.1-0.1,5.2-0.8,7.5-1.2c1.6-0.2,5.8-0.5,6.2-0.6l0.3,0.9c0,0,4.5-0.3,7.7-1.2c0,0,0.1-0.4,0.2-1c0.3,0.1,1.3,0.5,1.3,0.5l0.4,1.3
	c0,0,1.3-0.1,3.1-0.3c1.4-0.2,3.1-0.5,4.5-0.9c0,0,0.6-1.6,0.1-3.4c0.3,0,0.5-0.1,0.7-0.2c3.3-0.7,7.9-1.5,11.2-2.3h0.2l0.3,1.7
	c0,0-0.4,0.4-0.3,0.8c0.1,0.4,0.4,0.6,0.8,0.6c0.4-0.1,0.7-0.4,0.6-0.8c-0.1-0.4-0.4-0.6-0.8-0.6l-0.1-0.7l0.5-0.1l-0.2-0.9l1.3-0.2
	v-0.2c0.3-0.2,0.6-0.2,0.9-0.4c1.5-0.6,3.8-1.9,5.2-2.9c0.9-0.6,1.6-1.1,1.5-1.4v-0.2C431.4,62.5,431.5,61.9,430.8,61.4L430.8,61.4
	L430.8,61.4L430.8,61.4z"/>
<path class="st2" d="M352,135.8c-5.4-0.6-14.9-2.2-26.6-6.5c-1.2-0.4-2.4-0.9-3.6-1.4c-0.1,0-0.2-0.1-0.3-0.1c-0.1,0-0.1,0-0.2-0.1
	c-0.1,0-0.2-0.1-0.3-0.1c-8.6-3.5-18.3-8.5-28.3-15.6c-1.5-1.1-3.1-2.2-4.6-3.4c-3.7-2.9-7.5-6-11.3-9.5
	c-3.3-7.8-10.5-10.2-18.4-10.2c-7.9,0-11.4-4.2-14.4-13.9c-1.4-4.2-4.5-7.3-8-9.3c-0.5-0.3-0.9-0.5-1.4-0.7
	c-0.4-0.2-0.9-0.4-1.3-0.6c-3.8-1.5-7.8-1.9-10.1-1.2c-2.1,0.6-4.7,0.7-7.2,0.1c-2.9-0.7-5.9-2.4-8.4-5.5c0,0,0-0.1-0.1-0.1
	c-0.9-1-1.6-2.2-2.4-3.6c-4.6-9.1-16.1-8.3-16.1-8.3s-2.4-6.5-11.8-6.5c-7.5,0.1-9.9,4-10.5,5.4c-0.1,0.3-0.2,0.5-0.2,0.5
	c-2.6-0.2-4.8,0.4-6.5,1.3c-6.4,3.4-7.5,12-7.5,12c-2.8-0.8-5.2-0.7-7.2-0.3c-3.3,0.7-5.4,2.5-5.4,2.5c-1.1-4.8-5.1-4-5.1-4
	c-0.9-4.1-2.6-7.1-4.7-9.3c-5.8-6-14.1-5.7-14.1-5.7c-0.3-16.6-13.3-20.6-22.1-20.3c-8.9,0.4-12-10.7-26.4-13.1
	c-14.4-2.4-23.8,5.5-23.8,5.5c-17.4-3.2-27.3,3.3-27.3,3.3C9.7,14.6,3.5,14.9-1,15.8v154.1h289.7l44.9-22.2l1.4-0.7l2-1l19.4-9.6
	l0.5-0.2C357,136.2,355.2,136.2,352,135.8L352,135.8z"/>
<linearGradient id="SVGID_1_" gradientUnits="userSpaceOnUse" x1="171.94" y1="179.2402" x2="171.94" y2="92.18" gradientTransform="matrix(1 0 0 -1 0 202)">
	<stop  offset="0" style="stop-color:#C9C9CA"/>
	<stop  offset="1" style="stop-color:#FFFFFF;stop-opacity:0.3"/>
</linearGradient>
<path class="st3" d="M88.3,71.4v-4.8h5.3v-2.4h3.5V60h4.3v1.7h3.1V64h2.4v-9.5h9.5v-3.7h4.2v7h8.5V46h6.6v-1.7h4.3v27.5h5.3v-4.5
	h6.1v-2.8h-0.2v-0.5h0.9v-4.5l3-3.5h3v8.6h4.5v-1h0.4v-0.5l1.6-2.7l1.6,2.7v0.5h0.5v1h0.4v1.8h0.5v-0.3c0-0.1,0.1-0.2,0.2-0.2h2.3
	v-2.3h0.2V66h0.2v-1.5h0.2V66h2c0.1,0,0.2,0.1,0.2,0.2v0.3h0.4v5.4h4.8v6.6h5.1V67.7h1.8v-8.8h0.5v-0.3c0-0.2,0.1-0.3,0.3-0.3h5.6
	c0.2,0,0.3,0.1,0.3,0.3v0.3h0.6v15.4h1.7V50.9h1v-0.3l2.6-1.7V46h0.3v2.9l2.6,1.7v0.3h1v11.9h2.6v-0.4h0.3V62h-0.3v-0.4h0.3v-0.4
	h-0.3v-0.4h0.3v-0.4h-0.3v-0.4h0.3v-0.4h-0.3v-0.4h0.3V59h-0.3v-0.4h0.3v-0.4h-0.3v-0.4h0.3v-0.4h-0.3v-0.4h0.3v-0.4h-0.3v-0.4h0.3
	V56h-0.3v-0.4h1.1v-0.4h-0.3v-0.4h2.6v-2.9h0.3v2.9h0.2V53h0.3v1.9h2.9v0.4h-0.3v0.4h1.1V56H212v0.4h0.3v0.4H212v0.4h0.3v0.4H212
	v0.4h0.3v0.4H212v0.4h0.3V59H212v0.4h0.3v0.3h3.8V59h-0.2v-0.6h1.2v-1.6l3.8-4.5h3.1v6.7h1.2v-0.4h5.1v0.4h0.6v9.7h10.7l0-12.4h1
	v-1.2l3.5-6.1l3.5,6.1v1.2h1v9.7l2.2,0v-1.4h1.8v1.4h2.9v16.8h6.1v9.6h5.7v11.1H74.6V71.3L88.3,71.4L88.3,71.4z"/>
<linearGradient id="SVGID_2_" gradientUnits="userSpaceOnUse" x1="375.145" y1="106.98" x2="375.145" y2="19.92" gradientTransform="matrix(1 0 0 -1 0 202)">
	<stop  offset="0" style="stop-color:#C9C9CA"/>
	<stop  offset="0.81" style="stop-color:#FFFFFF;stop-opacity:0.3"/>
</linearGradient>
<path class="st4" d="M458.8,128.5v-4.8h-5.3v-2.4H450v-4.3h-4.3v1.7h-3.1v2.3h-2.4v-9.5h-9.5V108h-4.2v7h-8.5v-11.8h-6.6v-1.7H407
	V129h-5.3v-4.6h-6.1v-2.8h0.2v-0.5h-0.9v-4.5l-3-3.5h-3v8.6h-4.5v-1h-0.4v-0.5l-1.6-2.7l-1.6,2.7v0.5h-0.4v1h-0.5v1.8h-0.5v-0.3
	c0-0.1-0.1-0.2-0.2-0.2h-2.3v-2.3h-0.2v2.3h-0.2v-1.5h-0.2v1.5h-2c-0.1,0-0.2,0.1-0.2,0.2v0.3h-0.4v5.4h-4.8v6.6h-5.1v-10.8h-1.8
	V116h-0.6v-0.3c0-0.2-0.1-0.3-0.3-0.3h-5.6c-0.2,0-0.3,0.1-0.3,0.3v0.3h-0.5v15.4h-1.7V108h-1v-0.3l-2.6-1.7v-2.9h-0.3v2.9l-2.6,1.7
	v0.3h-1v11.9h-2.6v-0.4h-0.3v-0.4h0.3v-0.4h-0.3v-0.4h0.3v-0.4h-0.3v-0.4h0.3v-0.4h-0.3v-0.4h0.3v-0.4h-0.3v-0.4h0.3v-0.4h-0.3v-0.4
	h0.3V115h-0.3v-0.4h0.3v-0.4h-0.3v-0.4h0.3v-0.4h-0.3v-0.4h0.3v-0.4h-1.1v-0.4h0.3V112h-2.6v-2.9H339v2.9h-0.2v-1.8h-0.3v1.8h-2.9
	v0.4h0.3v0.4h-1.1v0.4h0.3v0.4h-0.3v0.4h0.3v0.4h-0.3v0.4h0.3v0.4h-0.3v0.4h0.3v0.4h-0.3v0.4h0.3v0.4h-0.3v0.3h-3.8v-0.6h0.2v-0.6
	h-1.2V114l-3.8-4.5h-3.1v6.7H322v-0.4h-5.1v0.4h-0.6v9.7h-10.7l0-12.4h-1v-1.1l-3.5-6.1l-3.5,6.1v1.1h-1v9.7l-2.2,0v-1.4h-1.8v1.4
	h-2.9V140h-6.1v9.6h-5.7v11.1h194.8v-32.2L458.8,128.5L458.8,128.5L458.8,128.5z"/>
<path class="st2" d="M1353.6-0.9v124.8h-247.2V73.3c0,0,7-0.5,9.7-6.6c0.3-0.8,0.7-1.4,1.1-2.1c2.9-4.4,7.9-5.9,13.6-5.9
	c1.8,0,3.3-0.3,4.6-0.8c1-0.4,1.8-1,2.6-1.8c1.9-1.9,3.2-4.7,4.5-8.7c2.4-7.9,12.5-10.8,16.8-9.5c4.2,1.2,10.5,0,14.4-7.3
	s12.9-6.7,12.9-6.7s2.1-5.4,9.5-5.2c7.6,0.1,8.6,4.8,8.6,4.8c4.1-0.3,6.7,1.4,8.5,3.6c2.5,3.1,3,7.1,3,7.1c3.2-1,5.9-0.3,7.8,0.4
	c0.7,0.3,1.3,0.7,1.7,0.9c0.3,0.2,0.4,0.3,0.5,0.4c0.1,0,0.1,0.1,0.1,0.1l0-0.1c0.1-0.3,0.1-0.5,0.2-0.7c0.4-1.1,1-1.7,1.7-2
	c1.1-0.6,2.2-0.4,2.2-0.4c0.6-2.8,1.6-4.9,2.9-6.5c4.5-5.9,12.2-5.5,12.2-5.5c0.3-13.3,10.7-16.8,17.8-16.3c3.6,0.1,6-1.9,9-4.3
	h51.7c1.1,0.5,1.7,0.9,1.7,0.9c1-0.4,1.9-0.7,2.9-0.9h12.1c3,0.7,4.8,1.6,4.8,1.6c0.9-0.7,1.8-1.2,2.7-1.6c1.5-0.7,3-0.9,4.3-1
	C1352.8-1,1353.2-1,1353.6-0.9z"/>
<path class="st5" d="M933.4,135.7l-3.5-11.1l-3.5,11.1H933.4z"/>
<path class="st5" d="M951.1,142.9l-8.1-25.5l-8.1,25.5H951.1z"/>
<linearGradient id="SVGID_3_" gradientUnits="userSpaceOnUse" x1="1157.5437" y1="258.6094" x2="1071.9236" y2="-272.7506" gradientTransform="matrix(1 0 0 -1 0 202)">
	<stop  offset="0" style="stop-color:#F5F5F5"/>
	<stop  offset="0.22" style="stop-color:#E8E8E8"/>
	<stop  offset="0.36" style="stop-color:#E4E5E5"/>
	<stop  offset="0.51" style="stop-color:#D0D0D1"/>
	<stop  offset="0.69" style="stop-color:#B3B3B5"/>
	<stop  offset="0.87" style="stop-color:#8E8E91"/>
	<stop  offset="1" style="stop-color:#6D6E71"/>
</linearGradient>
<path class="st6" d="M911.5,140.7c66.8-0.8,74.3-58.3,126.9-71.6c42.7-10.8,72.7,11,91.1,7.1c38.2-8.2,44-40.6,86.5-49.7
	c20.1-4.3,60.4,11.2,83.7,6.2c23-4.9,23.1,32.9,49.5,27.3c8.9,41.7-20.5-18.3-11.6,23.5l-344,73.6
	C990.3,141.1,919,175.3,911.5,140.7L911.5,140.7z"/>
<linearGradient id="SVGID_4_" gradientUnits="userSpaceOnUse" x1="1362.8451" y1="171.53" x2="1362.8451" y2="100.78" gradientTransform="matrix(1 0 0 -1 0 202)">
	<stop  offset="0" style="stop-color:#F5F5F5"/>
	<stop  offset="0.17" style="stop-color:#F1F1F1"/>
	<stop  offset="0.34" style="stop-color:#E4E5E5"/>
	<stop  offset="0.51" style="stop-color:#D0D0D1"/>
	<stop  offset="0.69" style="stop-color:#B3B3B5"/>
	<stop  offset="0.87" style="stop-color:#8E8E91"/>
	<stop  offset="1" style="stop-color:#6D6E71"/>
</linearGradient>
<path class="st7" d="M1438.6,18.2v17.6l-10.2,5.2l-8.5,4.4h-132.9v-0.5c2.9-1.3,6-2.9,9.2-4.7c1-0.5,1.9-1.1,2.9-1.7
	c1.2-0.7,2.5-1.5,3.7-2.3c1-0.6,2-1.3,3.1-2c0.7-0.4,1.4-0.9,2.1-1.4h0c5.3-3.5,10.8-7.5,16.4-11.5c3-2.1,6-4.3,9-6.4
	c6.6-4.6,13.4-9.2,20.2-13.5c0.8-0.5,1.6-1,2.4-1.5h70.4c0.4,0.6,0.8,1.1,1.2,1.7c0.9,1.3,1.7,2.5,2.5,3.8
	C1433.2,9.9,1435.8,14.4,1438.6,18.2z"/>
<path class="st5" d="M960.3,197.8l83.9-43.3c-202.7-59.1-559.3-26.2-670-14.9c-147.6-1.4-140.8-36.6-250.9-79
	c-48.2-18.5-90-14.4-121.6-3.8v140.9H960.3z"/>
<g class="st8">
	
		<linearGradient id="SVGID_5_" gradientUnits="userSpaceOnUse" x1="341.7406" y1="49.0162" x2="1087.8707" y2="47.1162" gradientTransform="matrix(1 0 0 -1 0 202)">
		<stop  offset="0" style="stop-color:#F5F5F5;stop-opacity:0"/>
		<stop  offset="0.27" style="stop-color:#FDFDFD"/>
		<stop  offset="0.67" style="stop-color:#FFFFFF"/>
		<stop  offset="1" style="stop-color:#F5F5F5;stop-opacity:0"/>
	</linearGradient>
	<path class="st9" d="M385.2,154.4c0,0,24.9,0.6,24.6,0.6c39.8-4.2,171.2-11.6,217.3-13.5c137.2-7.1,337.4-5.8,452.9,28.4l-0.3,1
		c-19.9-3-39.6-6.4-59.3-9.2c-14.4-2.1-30-4.1-44.3-5.6c-68.8-7.9-234.2-10.1-303.3-7.1c-49,1.9-198.5,6.6-247.5,8.8
		c-5.1,0.2-10.3,0.3-15.4,0.4c-2.9-0.3-9.4-1-12.4-1.4l-6.2-0.7c-2.1-0.2-4.1-0.5-6.1-0.8L385.2,154.4L385.2,154.4z"/>
</g>
<path class="st10" d="M349.6,197.8v-26c-2.3,0.3-4.5,0.5-6.8,0.8v25.2H349.6z"/>
<linearGradient id="SVGID_6_" gradientUnits="userSpaceOnUse" x1="1426.4647" y1="246.6679" x2="1363.0947" y2="109.2079" gradientTransform="matrix(1 0 0 -1 0 202)">
	<stop  offset="0" style="stop-color:#F5F5F5"/>
	<stop  offset="0.17" style="stop-color:#F1F1F1"/>
	<stop  offset="0.34" style="stop-color:#E4E5E5"/>
	<stop  offset="0.51" style="stop-color:#D0D0D1"/>
	<stop  offset="0.69" style="stop-color:#B3B3B5"/>
	<stop  offset="0.87" style="stop-color:#8E8E91"/>
	<stop  offset="1" style="stop-color:#6D6E71"/>
</linearGradient>
<path class="st11" d="M1417.8,57.5l-7.8-27.9c-0.1-0.4-0.5-0.6-0.8-0.5l-6.6,1.3c-0.1,0-0.1,0-0.2,0.1l-9.6,4.8l-12.8,6.7
	c-0.1,0.1-0.2,0.1-0.3,0.1l-4.2-0.1c-0.1,0-0.2,0-0.2,0l-4.7,1.5c-0.1,0-0.1,0-0.2,0H1359c-0.1,0-0.2,0-0.2,0l-9.4-3.4
	c-0.4-0.1-0.8,0.1-0.9,0.5l-4.1,14.8c-0.1,0.3,0.1,0.7,0.3,0.8l24.9,14.2c0.2,0.1,0.4,0.1,0.5,0.1l47.2-12.2
	C1417.7,58.3,1417.9,57.9,1417.8,57.5L1417.8,57.5L1417.8,57.5z"/>
<linearGradient id="SVGID_7_" gradientUnits="userSpaceOnUse" x1="1421.0245" y1="210.9872" x2="1262.8046" y2="-22.2431" gradientTransform="matrix(1 0 0 -1 0 202)">
	<stop  offset="0" style="stop-color:#F5F5F5"/>
	<stop  offset="0.17" style="stop-color:#F1F1F1"/>
	<stop  offset="0.34" style="stop-color:#E4E5E5"/>
	<stop  offset="0.51" style="stop-color:#D0D0D1"/>
	<stop  offset="0.69" style="stop-color:#B3B3B5"/>
	<stop  offset="0.87" style="stop-color:#8E8E91"/>
	<stop  offset="1" style="stop-color:#6D6E71"/>
</linearGradient>
<path class="st12" d="M1438.6,47.6v66.4h-27.3c0,0-0.1,0-0.1,0l-2-0.4l-4.9-1l-2.2-0.4l-27.4-4.5l-13.4-2.2l-0.8-0.1
	c-0.1,0-0.3-0.1-0.3-0.2l-0.8-0.7l-1.2-1l-4-3.4l-1.2-1l-17-14.5L1306,59l-6.4-5.5c-0.1-0.1-0.2-0.2-0.2-0.4l-0.3-1.1l-1.3-5.5
	l-4-16.4c-0.1-0.3,0-0.5,0.2-0.7l14.2-13.2c0,0,0.1-0.1,0.2-0.1l2.2-1.1l0.8-0.4l0.9-0.4c0.2-0.1,0.3-0.2,0.4-0.4l0.1-0.4
	c0.1-0.3,0.3-0.5,0.6-0.5c0.2,0,0.3,0,0.5,0.1l19.4,15.4l3,2.4l12.6,9.3l5.1,3.8c0.1,0.1,0.2,0.2,0.2,0.3c0.3,0.7,1.7,3.5,4.1,5.4
	c2.5,1.9,5.3,4.2,6,4.8c0.1,0.1,0.2,0.1,0.4,0.2l4.3,0.4c0.1,0,0.2,0,0.3,0.1l6.9,3.9l6.5,3.7c0.2,0.1,0.5,0.1,0.7,0l5.5-3.6
	l1.3-0.9c0.1,0,0.1-0.1,0.2-0.2l2.5-3.4c0.1-0.1,0.1-0.1,0.2-0.2l13.6-8.8c0.2-0.1,0.3-0.3,0.3-0.5l0.7-7v0l0.2-7.4
	c0-0.2,0.1-0.4,0.3-0.6l1-0.7c0.1,0,0.1-0.1,0.2-0.1c0.2-0.1,0.4-0.1,0.6,0.1l11.8,7.6L1438.6,47.6z"/>
<linearGradient id="SVGID_8_" gradientUnits="userSpaceOnUse" x1="1310.2246" y1="224.1399" x2="1302.8846" y2="14.9298" gradientTransform="matrix(1 0 0 -1 0 202)">
	<stop  offset="0" style="stop-color:#F5F5F5"/>
	<stop  offset="0.48" style="stop-color:#D0D0D1"/>
	<stop  offset="0.66" style="stop-color:#B3B3B5"/>
	<stop  offset="0.77" style="stop-color:#8E8E91"/>
	<stop  offset="0.95" style="stop-color:#6D6E71"/>
</linearGradient>
<path class="st13" d="M1410.1,113.1l-49.4,21.9c-0.1,0.1-0.3,0.1-0.4,0.1l-159.2-22.4c-0.4-0.1-0.7-0.4-0.6-0.8
	c0.3-1.8,1.2-6.5,1.7-8.9c0.4-1.8,1.1-2.2,1.7-2.2c0.4,0,0.7-0.3,0.7-0.7c0-0.9,0.2-2.2,1.2-2.5c0.5-0.2,0.8-0.2,1-0.2
	c0.3,0,0.6-0.2,0.7-0.5c0.2-0.8,0.7-2,1.5-2.4c0.2-0.1,0.4-0.3,0.4-0.6c0-0.6,0.2-1.7,1.2-1.3c0,0,0.4-2.2,1.9-1.9
	c0,0,0.4-1.1,1.5-1.3c0.4-0.1,0.7-0.4,0.6-0.8c-0.1-0.6-0.1-1.4,0.8-1.6c0.3-0.1,0.5-0.4,0.5-0.7c0-0.6,0.3-1.5,2-1.5
	c0.3,0,0.7-0.2,0.7-0.6c0.2-0.8,0.7-2.2,2.3-2.3c0.3,0,0.5-0.2,0.6-0.5c0.3-1,1.3-3.3,4-3.2c0.4,0,0.7-0.2,0.8-0.6
	c0.1-0.4,0.3-0.7,1.2-0.9c0.4-0.1,0.7-0.5,0.6-0.9c-0.2-0.8-0.2-2,1.5-2.5c0.3-0.1,0.5-0.4,0.5-0.7c0-0.9,0.4-2.6,2.7-2.7
	c0.4,0,0.7-0.3,0.7-0.7c0.1-1.2,0.5-3.5,2.8-3.8c0.3,0,0.5-0.2,0.6-0.5c0.3-0.8,0.9-2.3,2.3-2.5c0.2,0,0.4-0.2,0.5-0.5
	c0.3-0.9,1.2-3,3.1-3.3c0.2,0,0.4-0.2,0.5-0.4c0.5-1.1,2-4.3,4.2-5.2c0.3-0.1,0.4-0.3,0.5-0.6c0.2-1.2,0.9-4.7,2.7-5.4
	c0.2-0.1,0.4-0.3,0.4-0.6c0.1-1,0.5-3.2,2.7-3.1c0.4,0,0.7-0.4,0.7-0.8c-0.1-0.9,0.3-2.2,2.7-2.6c0.3,0,0.5-0.3,0.6-0.6
	c0.2-1.2,0.8-4,3.6-4.2c0.2,0,0.3-0.1,0.5-0.2c0.4-0.4,1.3-1.2,2.7-1.2c0.2,0,0.4-0.1,0.6-0.2c0.4-0.4,1.3-1.3,2.1-1.5
	c0.3-0.1,0.5-0.3,0.5-0.5c0.1-0.6,0.8-1.5,3.4-1.7c0.2,0,0.5-0.1,0.6-0.3c0.5-0.8,1.9-2.8,4.5-1.7c0.3,0.1,0.7,0,0.9-0.3
	c0.3-0.6,1.1-1.3,2.8-1c0.3,0.1,0.6-0.1,0.8-0.4c0.2-0.5,0.8-1.1,2.3-1.1c0.3,0,0.7-0.2,0.8-0.5c0.2-0.6,0.7-1.3,2.8-0.7
	c0.3,0.1,0.6,0,0.8-0.3c0.3-0.5,1.1-1.3,2.7-1c0.2,0,0.5,0,0.6-0.2c0.4-0.5,1.4-1.4,3.2-1.1c0.2,0,0.5,0,0.6-0.2
	c0.5-0.5,1.6-1.4,3.3-1.3c0.4,0,0.8-0.2,0.8-0.6c0.1-0.8,0.7-2,3.2-2c0.1,0,0.2,0,0.3-0.1c0.5-0.3,2.3-1.2,5-1.3
	c0.2,0,0.4-0.1,0.5-0.3c0.4-0.5,1.7-1.7,4.2-1.9c0.3,0,0.5-0.2,0.6-0.5c0.1-0.3,0.3-0.5,1.1-0.6c0.3,0,0.6,0.1,0.7,0.4
	c0.2,0.4,0.4,0.9,0.1,1.1c-0.3,0.2-2,1.2-2.5,1.4c-0.1,0-0.1,0.1-0.2,0.2l-1.7,2.1c-0.1,0.2-0.2,0.4-0.1,0.6l0.1,0.3
	c0.1,0.5-0.4,1-0.9,0.8c-0.4-0.1-0.7,0.1-0.8,0.4c-0.3,0.9-0.8,2.5-0.4,3.9c0.5,1.7,0.6,3.4,0.6,3.9c0,0.1,0,0.3-0.1,0.4
	c-0.3,0.4-0.9,1.2-1.9,1.2c-0.7,0-1.2,0.2-1.5,0.3c-0.2,0.1-0.3,0.3-0.4,0.5c-0.2,1.1-1,4.9-0.7,6.5c0.4,1.8,1.5,8.5,1.5,8.5
	s0.8,3.8,4.9,4.8c4,0.9,30.4,13.9,30.4,13.9l10.7,6c0,0,2.8,1.5-1.2,3.8l-9.2,5.2c-0.1,0-0.2,0.1-0.2,0.1c-0.7,0.1-4,0.8,1.3,4.1
	c5.7,3.5,37.4,20.1,39.3,21c0.1,0,0.1,0.1,0.2,0.1c0.8,0.2,6.5,1.3,6.2-1c-0.2-2.4-0.2-3.1-0.2-3.1s-0.1-2.1,3.3,0l20.3,11.9
	C1410.7,112.2,1410.6,112.9,1410.1,113.1L1410.1,113.1L1410.1,113.1z"/>
<linearGradient id="SVGID_9_" gradientUnits="userSpaceOnUse" x1="1432.728" y1="218.5865" x2="1377.8081" y2="99.4563" gradientTransform="matrix(1 0 0 -1 0 202)">
	<stop  offset="0" style="stop-color:#F5F5F5"/>
	<stop  offset="0.17" style="stop-color:#F1F1F1"/>
	<stop  offset="0.34" style="stop-color:#E4E5E5"/>
	<stop  offset="0.51" style="stop-color:#D0D0D1"/>
	<stop  offset="0.69" style="stop-color:#B3B3B5"/>
	<stop  offset="0.87" style="stop-color:#8E8E91"/>
	<stop  offset="1" style="stop-color:#6D6E71"/>
</linearGradient>
<path class="st14" d="M1393,62.7l3.8-3.3l-1-0.8l7.5-6.3c0.5-0.4,1.3,0,1.2,0.7l-0.7,3.2c0,0.1-0.1,0.2-0.2,0.3l-2.8,3.1
	c-0.3,0.3-0.2,0.8,0.1,1.1l0.1,0.1c0.5,0.3,0.4,1,0,1.2l-5.8,3.2c-0.1,0-0.1,0.1-0.2,0.1l-3.6,0.8c-0.7,0.2-1.2-0.7-0.6-1.2
	L1393,62.7L1393,62.7L1393,62.7z"/>
<path class="st15" d="M1149.2,105.6l-12.3-54.3l-12.3,54.3H1149.2z"/>
<path class="st15" d="M1001.7,176.2l-12.3-54.3L977,176.2H1001.7z"/>
<path class="st15" d="M1056.6,151.5l-12.3-54.3l-12.3,54.3H1056.6z"/>
<path class="st15" d="M546.8,194.5l-12.3-54.3l-12.3,54.3H546.8z"/>
<path class="st15" d="M1095.1,151.5l-20.4-89.9l-20.4,89.9H1095.1z"/>
<path class="st15" d="M505.5,197.8l-20-88.2l-20,88.2H505.5z"/>
<path class="st15" d="M403.9,187.2l-20.4-89.9l-20.4,89.9H403.9z"/>
<linearGradient id="SVGID_10_" gradientUnits="userSpaceOnUse" x1="375.15" y1="73.319" x2="1438.64" y2="73.319" gradientTransform="matrix(1 0 0 -1 0 202)">
	<stop  offset="0.17" style="stop-color:#F1F1F1"/>
	<stop  offset="0.34" style="stop-color:#E4E5E5"/>
</linearGradient>
<path class="st16" d="M1438.6,197.8v-61c-9-5.9-19.8-12.7-31.7-19.8c-1.4-0.8-2.7-1.6-4.1-2.4c-1.4-0.8-2.8-1.6-4.2-2.4
	c-2.4-1.4-4.9-2.8-7.3-4.2c-6.9-3.9-14-7.8-21.2-11.6c-2.8-1.5-5.7-3-8.6-4.4c-0.7-0.3-1.3-0.7-2-1c-0.7-0.3-1.4-0.7-2.1-1
	c-0.9-0.4-1.7-0.8-2.6-1.3c-0.8-0.4-1.6-0.8-2.3-1.1c-5.1-2.5-10.3-4.8-15.4-7c-19.5-8.5-38.8-15.1-56-17.9
	c-19.1-3.1-36.5-3.6-52.6-2.3c-1.2,0.1-2.4,0.2-3.6,0.4c-3,0.3-5.9,0.7-8.8,1.1c-7.8,1.2-15.3,2.8-22.5,4.8
	c-0.7,0.2-1.4,0.4-2.1,0.6c-0.9,0.3-1.8,0.5-2.6,0.8c-15.5,4.7-29.9,11-44,18.3c-6.1,3.2-12.1,6.5-18.1,9.9
	c-12.9,7.4-25.7,15.3-38.9,23.1c-4.3,2.5-8.6,5-12.9,7.5c-5.6,3.2-11.2,6.3-17,9.3c-1.4,0.7-2.8,1.5-4.3,2.2
	c-6.8,3.4-13.7,6.7-20.8,9.7c-0.9,0.4-1.8,0.8-2.7,1.1c-0.6,0.3-1.3,0.5-1.9,0.8c-3.8,1.6-7.8,3.1-11.8,4.5
	c-5.9,2.1-12,4.1-18.3,5.9c-3.9,1.1-7.8,2.1-11.8,3.1c-0.5,0.1-2.8,0.6-6.6,1.4c-20.6,4.3-141.8,17.9-241.2,33H1438.6z"/>
<linearGradient id="SVGID_11_" gradientUnits="userSpaceOnUse" x1="1117.2822" y1="409.861" x2="1431.7322" y2="-301.229" gradientTransform="matrix(1 0 0 -1 0 202)">
	<stop  offset="0" style="stop-color:#F5F5F5"/>
	<stop  offset="0.17" style="stop-color:#F1F1F1"/>
	<stop  offset="0.34" style="stop-color:#E4E5E5"/>
	<stop  offset="0.43" style="stop-color:#DEDEDF"/>
	<stop  offset="0.54" style="stop-color:#D0D0D1"/>
	<stop  offset="0.69" style="stop-color:#B3B3B5"/>
	<stop  offset="0.87" style="stop-color:#8E8E91"/>
	<stop  offset="1" style="stop-color:#6D6E71"/>
</linearGradient>
<path class="st17" d="M1148.1,188.4c6,1,11.3,3.4,15.9,6.8c1.1,0.8,2.2,1.7,3.2,2.6h271.4v-61c-9-5.9-19.8-12.7-31.7-19.8
	c-1.4-0.8-2.7-1.6-4.1-2.4c-1.4-0.8-2.8-1.6-4.2-2.4c-2.4-1.4-4.9-2.8-7.3-4.2c-6.9-3.9-14-7.8-21.2-11.6c-2.8-1.5-5.7-3-8.6-4.4
	c-0.7-0.3-1.3-0.7-2-1c-0.7-0.3-1.4-0.7-2.1-1c-0.9-0.4-1.7-0.8-2.6-1.3c-0.8-0.4-1.6-0.8-2.3-1.1c-5.1-2.5-10.3-4.8-15.4-7
	c-19.5-8.5-38.8-15.1-56-17.9c-6.9-1-13.5-1.8-19.9-2.3c5.9,4.1,13.2,11.3,8.3,19.6c-0.7,1.1-1.5,2.2-2.6,3.3
	c-2.5,2.6-6,4.8-9.9,6.7c-9.7,4.8-22.4,8.3-32.8,12.5c-6.2,2.5-11.6,5.2-15,8.5c-1.7,1.6-2.8,3.4-3.4,5.4
	c-4.5,15.6-22.5,32.7-57.5,26.2C1113.3,136,1093.1,179.2,1148.1,188.4z"/>
<g class="st18">
	<path class="st19" d="M1066.5,131.5c15.8-10.1,34.9-13.7,53.4-14.5c18.6-0.3,37.3-0.7,55.7-3.6c8.9-1.6,18.4-3.3,26.2-8.2
		c3.8-2.5,7.5-5.4,11.3-8.1c20.2-14.8,41.8-21.5,66.9-19.1c9.3,0.9,30.9,3.2,36.8,10.4c10.3,15.7-40.8,19.6-49.6,20.4
		c-6.6,0.7-13.3,2.2-19.2,4.9c-25.7,12.6,1.7,22,16.1,24.5c15.8,3,32.1,3.9,48.2,4.4l7,0.2l0.1,2c-22.8,2.4-65.8,4.9-84.4-10.4
		c-11.6-10.8-1.7-22.6,9.9-27.5c9-4.1,18.8-5.3,28.5-6c9.1-0.9,18.3-2.1,26.9-4.4c3.8-1.1,7.9-2.2,10.9-4.6c0.2-0.2,0.3-0.3,0.2-0.3
		c0,0-0.1,0.4,0,0.6c0.1,0.2,0.1,0.3,0,0.1c-1.3-1.4-3.4-2.2-5.7-3.1c-6.1-2.2-13.1-3.5-19.7-4.6c-11.1-1.6-22.6-2.2-33.6-0.1
		l-6.5,1.5c-2.2,0.6-4.3,1.3-6.4,2c-4.2,1.6-8.4,3.3-12.3,5.5c-8.3,4.3-15.3,10-23.4,15c-4.2,2.7-9,4.1-13.7,5.4
		c-23,5.5-47,5.1-70.2,5.1C1101.5,119.5,1083.1,123.3,1066.5,131.5L1066.5,131.5z"/>
</g>
<linearGradient id="SVGID_12_" gradientUnits="userSpaceOnUse" x1="1570.7341" y1="542.7279" x2="908.5742" y2="-764.1421" gradientTransform="matrix(1 0 0 -1 0 202)">
	<stop  offset="0" style="stop-color:#F5F5F5"/>
	<stop  offset="0.17" style="stop-color:#F1F1F1"/>
	<stop  offset="0.34" style="stop-color:#E4E5E5"/>
	<stop  offset="0.51" style="stop-color:#D0D0D1"/>
	<stop  offset="0.69" style="stop-color:#B3B3B5"/>
	<stop  offset="0.87" style="stop-color:#8E8E91"/>
	<stop  offset="1" style="stop-color:#6D6E71"/>
</linearGradient>
<path class="st20" d="M1438.6,197.8V73.9c-10.1,1.1-20.7,3.6-31.9,7.4c-5.1,1.7-10.3,3.7-15.7,5.8c-1.5,0.6-2.9,1.2-4.4,1.8l-2.3,1
	c-0.7,0.3-1.3,0.6-2,0.9c-2.5,1.1-5,2.2-7.6,3.4c-1.6,0.7-3.2,1.5-4.8,2.2c-3.9,1.8-7.8,3.7-11.8,5.7c-3.7,1.8-7.4,3.7-11.2,5.6
	c-5.9,3-12,6.2-18.3,9.4c-15.7,8.2-32.5,17.1-50.4,26.3c-33.5,17.2-71.3,35.3-114.4,51.8c-2.3,0.9-4.6,1.7-6.9,2.6H1438.6z"/>
<path class="st21" d="M1224.6,73.1c-3.2,4.1-9.7,3.3-9.4-3.1c0.1-6.4,3.1-22,5.5-22.2C1222.7,47.7,1227.7,69.1,1224.6,73.1
	L1224.6,73.1z"/>
<path class="st22" d="M1205.9,109.8c-2.8,3.7-8.3,3-8.2-2.6c0.1-5.5,2.8-19,4.7-19.1C1204.3,87.9,1208.6,106.4,1205.9,109.8
	L1205.9,109.8L1205.9,109.8z"/>
<path class="st21" d="M1189,102.8c-2.8,3.6-8.2,2.9-8.1-2.8c0.1-5.5,2.6-18.9,4.7-19.1C1187.5,80.9,1191.8,99.3,1189,102.8
	L1189,102.8z"/>
<path class="st23" d="M1269.5,109.9c-2.8,3.6-8.2,2.9-8.1-2.8c0.1-5.5,2.6-18.9,4.7-19.1C1268,88,1272.3,106.4,1269.5,109.9
	L1269.5,109.9z"/>
<path class="st21" d="M1151.6,122.9c-1.8,2.3-5.3,1.9-5.3-1.8c0.1-3.6,1.7-12.4,3.1-12.5C1150.6,108.6,1153.4,120.6,1151.6,122.9z"
	/>
<path class="st21" d="M1194.1,79.2c-2.2,2.9-6.7,2.4-6.6-2.1c0.1-4.6,2.2-15.4,3.9-15.5C1192.9,61.5,1196.3,76.5,1194.1,79.2
	L1194.1,79.2L1194.1,79.2z"/>
<path class="st21" d="M1234.3,79.1c-2.1,2.8-6.2,2.2-6.1-2.1c0.1-4.1,2.1-14.3,3.6-14.4C1233.2,62.6,1236.4,76.5,1234.3,79.1z"/>
<path class="st24" d="M238.9,98.8v-9.6l-3.8-2.8l-3.1,2.8v10.1L238.9,98.8z"/>
<path class="st22" d="M232.1,89.2h-10.4v15.4l10.4-6.1V89.2z"/>
<path class="st25" d="M235.1,86.3h-11l-2.5,2.8h10.4L235.1,86.3z"/>
<path class="st24" d="M225.2,99.1V76.4h-10.3v24.8L225.2,99.1z"/>
<path class="st22" d="M214.9,76.4l-3.9-4.8v26.6l3.9,3V76.4z"/>
<path class="st25" d="M221.6,71.6H211l3.9,4.8h10.3L221.6,71.6z"/>
<path class="st2" d="M305.7,128.1h-25.5V64l25.5-0.4V128.1z"/>
<path class="st25" d="M304.6,65.2h-1.1v2.5h1.1V65.2z"/>
<path class="st25" d="M301.9,65.2h-1.1v2.5h1.1V65.2z"/>
<path class="st25" d="M299.3,65.2h-1.1v2.5h1.1V65.2z"/>
<path class="st25" d="M296.7,65.2h-1.1v2.5h1.1V65.2z"/>
<path class="st25" d="M294.1,65.2H293v2.5h1.1V65.2z"/>
<path class="st25" d="M291.5,65.2h-1.1v2.5h1.1V65.2z"/>
<path class="st25" d="M304.6,69h-1.1v2.5h1.1V69z"/>
<path class="st25" d="M301.9,69h-1.1v2.5h1.1V69z"/>
<path class="st25" d="M299.3,69h-1.1v2.5h1.1V69z"/>
<path class="st25" d="M296.7,69h-1.1v2.5h1.1V69z"/>
<path class="st25" d="M294.1,69H293v2.5h1.1V69z"/>
<path class="st25" d="M291.5,69h-1.1v2.5h1.1V69z"/>
<path class="st25" d="M304.6,72.8h-1.1v2.5h1.1V72.8z"/>
<path class="st25" d="M301.9,72.8h-1.1v2.5h1.1V72.8z"/>
<path class="st25" d="M299.3,72.8h-1.1v2.5h1.1V72.8z"/>
<path class="st25" d="M296.7,72.8h-1.1v2.5h1.1V72.8z"/>
<path class="st25" d="M294.1,72.8H293v2.5h1.1V72.8z"/>
<path class="st25" d="M291.5,72.8h-1.1v2.5h1.1V72.8z"/>
<path class="st25" d="M304.6,76.6h-1.1V79h1.1V76.6z"/>
<path class="st25" d="M301.9,76.6h-1.1V79h1.1V76.6z"/>
<path class="st25" d="M299.3,76.6h-1.1V79h1.1V76.6z"/>
<path class="st25" d="M296.7,76.6h-1.1V79h1.1V76.6z"/>
<path class="st25" d="M294.1,76.6H293V79h1.1V76.6z"/>
<path class="st25" d="M291.5,76.6h-1.1V79h1.1V76.6z"/>
<path class="st25" d="M304.6,80.3h-1.1v2.5h1.1V80.3z"/>
<path class="st25" d="M301.9,80.3h-1.1v2.5h1.1V80.3z"/>
<path class="st25" d="M299.3,80.3h-1.1v2.5h1.1V80.3z"/>
<path class="st25" d="M296.7,80.3h-1.1v2.5h1.1V80.3z"/>
<path class="st25" d="M294.1,80.3H293v2.5h1.1V80.3z"/>
<path class="st25" d="M291.5,80.3h-1.1v2.5h1.1V80.3z"/>
<path class="st25" d="M304.6,84.1h-1.1v2.5h1.1V84.1z"/>
<path class="st25" d="M301.9,84.1h-1.1v2.5h1.1V84.1z"/>
<path class="st25" d="M299.3,84.1h-1.1v2.5h1.1V84.1z"/>
<path class="st25" d="M296.7,84.1h-1.1v2.5h1.1V84.1z"/>
<path class="st25" d="M294.1,84.1H293v2.5h1.1V84.1z"/>
<path class="st25" d="M291.5,84.1h-1.1v2.5h1.1V84.1z"/>
<path class="st25" d="M304.6,87.9h-1.1v2.5h1.1V87.9z"/>
<path class="st25" d="M301.9,87.9h-1.1v2.5h1.1V87.9z"/>
<path class="st25" d="M299.3,87.9h-1.1v2.5h1.1V87.9z"/>
<path class="st25" d="M296.7,87.9h-1.1v2.5h1.1V87.9z"/>
<path class="st25" d="M294.1,87.9H293v2.5h1.1V87.9z"/>
<path class="st25" d="M291.5,87.9h-1.1v2.5h1.1V87.9z"/>
<path class="st25" d="M304.6,91.7h-1.1v2.5h1.1V91.7z"/>
<path class="st25" d="M301.9,91.7h-1.1v2.5h1.1V91.7z"/>
<path class="st25" d="M299.3,91.7h-1.1v2.5h1.1V91.7z"/>
<path class="st25" d="M296.7,91.7h-1.1v2.5h1.1V91.7z"/>
<path class="st25" d="M294.1,91.7H293v2.5h1.1V91.7z"/>
<path class="st25" d="M291.5,91.7h-1.1v2.5h1.1V91.7z"/>
<path class="st25" d="M304.6,95.5h-1.1v2.5h1.1V95.5z"/>
<path class="st25" d="M301.9,95.5h-1.1v2.5h1.1V95.5z"/>
<path class="st25" d="M299.3,95.5h-1.1v2.5h1.1V95.5z"/>
<path class="st25" d="M296.7,95.5h-1.1v2.5h1.1V95.5z"/>
<path class="st25" d="M294.1,95.5H293v2.5h1.1V95.5z"/>
<path class="st25" d="M291.5,95.5h-1.1v2.5h1.1V95.5z"/>
<path class="st25" d="M304.6,99.3h-1.1v2.5h1.1V99.3z"/>
<path class="st25" d="M301.9,99.3h-1.1v2.5h1.1V99.3z"/>
<path class="st25" d="M299.3,99.3h-1.1v2.5h1.1V99.3z"/>
<path class="st25" d="M296.7,99.3h-1.1v2.5h1.1V99.3z"/>
<path class="st25" d="M294.1,99.3H293v2.5h1.1V99.3z"/>
<path class="st25" d="M291.5,99.3h-1.1v2.5h1.1V99.3z"/>
<path class="st25" d="M304.6,103h-1.1v2.5h1.1V103z"/>
<path class="st25" d="M301.9,103h-1.1v2.5h1.1V103z"/>
<path class="st25" d="M299.3,103h-1.1v2.5h1.1V103z"/>
<path class="st25" d="M296.7,103h-1.1v2.5h1.1V103z"/>
<path class="st25" d="M294.1,103H293v2.5h1.1V103z"/>
<path class="st25" d="M291.5,103h-1.1v2.5h1.1V103z"/>
<path class="st25" d="M304.6,106.8h-1.1v2.5h1.1V106.8z"/>
<path class="st25" d="M301.9,106.8h-1.1v2.5h1.1V106.8z"/>
<path class="st25" d="M299.3,106.8h-1.1v2.5h1.1V106.8z"/>
<path class="st25" d="M296.7,106.8h-1.1v2.5h1.1V106.8z"/>
<path class="st25" d="M294.1,106.8H293v2.5h1.1V106.8z"/>
<path class="st25" d="M291.5,106.8h-1.1v2.5h1.1V106.8z"/>
<path class="st25" d="M304.6,110.6h-1.1v2.5h1.1V110.6z"/>
<path class="st25" d="M301.9,110.6h-1.1v2.5h1.1V110.6z"/>
<path class="st25" d="M299.3,110.6h-1.1v2.5h1.1V110.6z"/>
<path class="st25" d="M296.7,110.6h-1.1v2.5h1.1V110.6z"/>
<path class="st25" d="M301.9,114.4h-1.1v2.5h1.1V114.4z"/>
<path class="st25" d="M299.3,114.4h-1.1v2.5h1.1V114.4z"/>
<path class="st25" d="M296.7,114.7h-1.1v2.5h1.1V114.7z"/>
<path class="st25" d="M294.1,110.6H293v2.5h1.1V110.6z"/>
<path class="st25" d="M291.5,110.6h-1.1v2.5h1.1V110.6z"/>
<path class="st22" d="M317.1,102.7v21.5l-3.8,4.5l-7,1.1l-3.8-2.8v-24.3H317.1z"/>
<path class="st2" d="M327.8,128v-24.8l-6.1-5.4l-4.6,4.7v24.9L327.8,128z"/>
<path class="st25" d="M321.7,97.8H309l-6.5,4.9h14.6L321.7,97.8z"/>
<path class="st22" d="M289.1,63.9v49.9l-9-0.7l0-49C283.2,64,286.2,63.9,289.1,63.9z"/>
<path class="st2" d="M281.8,116.6V84.9l-6,3.9V116L281.8,116.6z"/>
<path class="st22" d="M275.8,88.9h-14.5v26.3l14.5,0.9V88.9z"/>
<path class="st25" d="M275.8,88.9l6-3.9h-13.2l-7.3,3.9H275.8z"/>
<path class="st25" d="M280.8,90.2h-3.2v4.3h3.2V90.2z"/>
<path class="st25" d="M280.8,95.1h-3.2v4.3h3.2V95.1z"/>
<path class="st25" d="M280.8,100h-3.2v4.3h3.2V100z"/>
<path class="st25" d="M280.8,104.9h-3.2v4.3h3.2V104.9z"/>
<path class="st25" d="M326.2,104.2h-2.4v3.9h2.4V104.2z"/>
<path class="st25" d="M321.7,104.2h-2.4v3.9h2.4V104.2z"/>
<path class="st25" d="M326.2,110.2h-2.4v3.9h2.4V110.2z"/>
<path class="st25" d="M321.7,110.2h-2.4v3.9h2.4V110.2z"/>
<path class="st25" d="M326.2,116.2h-2.4v3.9h2.4V116.2z"/>
<path class="st25" d="M321.7,116.2h-2.4v3.9h2.4V116.2z"/>
<linearGradient id="SVGID_13_" gradientUnits="userSpaceOnUse" x1="267.9015" y1="108.11" x2="254.1515" y2="-177.05" gradientTransform="matrix(1 0 0 -1 0 202)">
	<stop  offset="0" style="stop-color:#F5F5F5"/>
	<stop  offset="0.17" style="stop-color:#F1F1F1"/>
	<stop  offset="0.34" style="stop-color:#E4E5E5"/>
	<stop  offset="0.51" style="stop-color:#D0D0D1"/>
	<stop  offset="0.69" style="stop-color:#B3B3B5"/>
	<stop  offset="0.87" style="stop-color:#8E8E91"/>
	<stop  offset="1" style="stop-color:#6D6E71"/>
</linearGradient>
<path class="st26" d="M527,175.3c-99.9-35.2-216-70.7-295.6-78.1c-122.5-11.4-198,35.7-229.6,61.6v16.5L527,175.3L527,175.3z"/>
<linearGradient id="SVGID_14_" gradientUnits="userSpaceOnUse" x1="490.8955" y1="259.5522" x2="133.0855" y2="-511.9979" gradientTransform="matrix(1 0 0 -1 0 202)">
	<stop  offset="0" style="stop-color:#F5F5F5"/>
	<stop  offset="0.17" style="stop-color:#F1F1F1"/>
	<stop  offset="0.34" style="stop-color:#E4E5E5"/>
	<stop  offset="0.51" style="stop-color:#D0D0D1"/>
	<stop  offset="0.69" style="stop-color:#B3B3B5"/>
	<stop  offset="0.87" style="stop-color:#8E8E91"/>
	<stop  offset="1" style="stop-color:#6D6E71"/>
</linearGradient>
<path class="st27" d="M220.1,104.9c38.4,9.3,64.2,16.1,64.2,41.5s-16.8,37.1,54.5,50.2c1.7,0.3,3.4,0.7,5.1,1.2h234.5
	c-116.5-44.2-259.6-92.5-347.1-100.6h0C217.6,95.9,201.3,100.4,220.1,104.9z"/>
<path class="st21" d="M174.2,115.4c2.9,3.8,8.6,3,8.4-2.8c-0.1-5.9-2.8-19.8-4.9-20C175.7,92.5,171.3,111.7,174.2,115.4L174.2,115.4
	L174.2,115.4z"/>
<path class="st28" d="M158.5,123.8c2.4,3.2,7.3,2.5,7.2-2.4c-0.1-5.1-2.4-17.1-4.3-17.3C159.7,104,155.9,120.6,158.5,123.8
	L158.5,123.8z"/>
<path class="st28" d="M206.1,142.1c2.5,3.2,7.5,2.6,7.3-2.4c-0.1-4.9-2.5-17-4.3-17.1C207.4,122.4,203.7,139,206.1,142.1
	L206.1,142.1z"/>
<path class="st21" d="M197.4,115.6c2.1,2.5,6.1,2.1,6-1.9c-0.1-4-2.1-13.8-3.5-13.9C198.5,99.6,195.4,113,197.4,115.6z"/>
<path class="st28" d="M132.5,119.5c1.8,2.5,5.6,2.1,5.5-1.7c-0.1-3.9-1.8-13-3.2-13.1C133.5,104.6,130.6,117.2,132.5,119.5z"/>
<path class="st21" d="M230.6,137.2c2.4,3.1,7.4,2.5,7.2-2.4c-0.1-5.1-2.4-17.1-4.3-17.3C232,117.4,228.1,134,230.6,137.2
	L230.6,137.2z"/>
<path class="st21" d="M416.1,144.8c2.4,3.1,7.4,2.5,7.2-2.4c-0.1-5.1-2.4-17.1-4.3-17.3C417.5,125,413.6,141.5,416.1,144.8
	L416.1,144.8z"/>
<path class="st28" d="M263.5,143c-0.1,1.8,2.4,2.1,4,1.7c1.6-0.4,2.2-0.7,1.5-3.3C267.5,135,263.8,140.1,263.5,143z"/>
<path class="st28" d="M158.8,152.9c-0.1,1.8,2.4,2.1,4,1.7c1.6-0.4,2.2-0.7,1.5-3.3C162.8,145,159,150,158.8,152.9z"/>
<path class="st28" d="M109.3,141.6c-0.1,1.8,2.4,2.1,4,1.7c1.6-0.4,2.2-0.7,1.5-3.3C113.3,133.6,109.5,138.7,109.3,141.6z"/>
<path class="st28" d="M247.2,131.8c0.1,2.2,3,2.1,4.8,1.5c1.8-0.6,2.4-1,1.4-4C250.7,122.2,247.1,128.5,247.2,131.8z"/>
<path class="st28" d="M222.8,124.1c1.6,2.2,4.9,1.7,4.8-1.6c0-3.3-1.6-11.4-2.8-11.5C223.7,111,221.2,122.1,222.8,124.1z"/>
<linearGradient id="SVGID_15_" gradientUnits="userSpaceOnUse" x1="1360.5592" y1="-80.553" x2="1165.009" y2="-662.913" gradientTransform="matrix(1 0 0 -1 0 202)">
	<stop  offset="0" style="stop-color:#F5F5F5"/>
	<stop  offset="0.17" style="stop-color:#F1F1F1"/>
	<stop  offset="0.34" style="stop-color:#E4E5E5"/>
	<stop  offset="0.51" style="stop-color:#D0D0D1"/>
	<stop  offset="0.69" style="stop-color:#B3B3B5"/>
	<stop  offset="0.87" style="stop-color:#8E8E91"/>
	<stop  offset="1" style="stop-color:#6D6E71"/>
</linearGradient>
<path class="st29" d="M1438.6,197.8v-21.5c-18.4,4.4-37.7,8.8-57.4,13c-1,0.2-2.1,0.4-3.1,0.7c-12.9,2.7-25.8,5.4-38.7,7.9H1438.6
	L1438.6,197.8z"/>
<linearGradient id="SVGID_16_" gradientUnits="userSpaceOnUse" x1="1199.399" y1="-26.1229" x2="1558.479" y2="24.2971" gradientTransform="matrix(1 0 0 -1 0 202)">
	<stop  offset="0" style="stop-color:#F5F5F5"/>
	<stop  offset="0.17" style="stop-color:#F1F1F1"/>
	<stop  offset="0.34" style="stop-color:#E4E5E5"/>
	<stop  offset="0.51" style="stop-color:#D0D0D1"/>
	<stop  offset="0.69" style="stop-color:#B3B3B5"/>
	<stop  offset="0.87" style="stop-color:#8E8E91"/>
	<stop  offset="1" style="stop-color:#6D6E71"/>
</linearGradient>
<path class="st30" d="M1438.6,197.8v-6.5c-9.9,2.2-20.3,4.4-31.4,6.5H1438.6z"/>
<path class="st31" d="M447.1,178.4c-24.4-4-61-7.8-80.5-23.2c-7.8-6.4-13.7-14.4-21.1-21.1c-6.4-5.9-13.6-11-21.4-14.8
	c-25.2-12.5-53.6-16.3-80.9-21.5c18.4,3.1,36.9,6,55,10.9c18,4.8,35.9,12.6,49.5,25.7c6.9,6.3,12.7,13.8,19.9,19.6
	c3.6,2.9,7.7,5.1,11.8,7.1c21.6,8.8,45,11.5,68,14.8L447.1,178.4z"/>
<path class="st31" d="M1438.6,200V-0.8h-7l-1.4,5.5l-0.3,1l-4.5,17.1l-3.5,13.3l-0.3,1.2l-0.7,2.7l0,0.2l-1.2,4.4l-0.1,0.2l-0.8,3
	l-1.7,6.5l-0.9,3.6l-2.8,10.7l-1.8,6.8l-0.9,3.5l-0.1,0.3l-0.8,3.2l-1.1,4l-1.8,6.7l-0.5,1.9h23.3l-5.2,0.6l-11.1,1.3l-7.8,0.9
	l-2.4,9.2l-1.2,4.4l-0.5,1.7l-0.9,3.3l-8.7,33.2l-6.4-24.3l-0.5-1.9l-1.5-5.8l-1.8-6.8l-6.4-0.8h6.1l-0.5-2.1l-1.3-5.1l-0.7-2.4
	l-2.1-8l-5.8-21.9l-6,22.6l-0.5,1.9l-0.9,3.6l-1.7,6.3l-2.4,9.2l-5.1,19.4l-2.9,11.2h14.2l-14.7,1.7l-11.6,44
	c-135,2.1-270.1-2.3-405.1-7.9c-15.6-0.6-127.2-1.3-142.8-2h0c-13.9-0.6-27.7-1.2-41.6-1.8c-25.1-1.1-50.3-2.2-75.4-3.3h0
	c-60.1-2.6-218.3-5-278.4-6.8c-97.2-2.9-194.4-4.2-291.6-1.9l-4.7-19l-14.8-3.3l14.6,0.5L92,110l-1.6-7.3l-7.1-32.2l-0.8-3.5
	l-0.4-1.7l-0.4,1.8l-0.8,3.4l-6.4,27.9L70.1,118l-4.2,18.3l-3.4-15.1L50.8,69.5l-0.2-1.1l-8-1.1h7.8l-4.5-19.9l-6.9-30.1l-1.7-7.5
	l-1.7,7.4L30,40.9l-2,8.6l-4.5,19.7l-1.8-7.9l-2.3-10.2l-4.8-21.3l-0.2-1.1l-8-1.1h7.7L7.8,0.4L7.5-0.8L7.4-1.3h-10V200H1438.6z
	 M1388.8,162l-0.2,0.6l-5.5-0.6H1388.8z M1387.8,165.9l-0.2,0.5l-4.5-0.5H1387.8z M75.4,173.5l-0.9,0.1l0-0.1H75.4z M64.4,143.1
	l-0.4,1.6l-11.9-1.6H64.4z M63.1,148.8l-0.3,1.5l-10.6-1.5H63.1z"/>
<g>
	
		<rect x="677.4" y="130.4" transform="matrix(-1 -1.224647e-16 1.224647e-16 -1 1469.9551 270.8328)" class="st32" width="115.1" height="10.1"/>
	<rect x="677.4" y="130.4" class="st33" width="115.1" height="5.2"/>
	<g>
		<circle class="st34" cx="692" cy="141.7" r="7.5"/>
		<circle class="st2" cx="692" cy="141.7" r="4.5"/>
		<circle class="st34" cx="692" cy="141.7" r="2.8"/>
	</g>
	<g>
		<circle class="st34" cx="757.8" cy="141.7" r="7.5"/>
		<circle class="st2" cx="757.8" cy="141.7" r="4.5"/>
		<circle class="st34" cx="757.8" cy="141.7" r="2.8"/>
	</g>
	<g>
		<circle class="st34" cx="776.4" cy="141.7" r="7.5"/>
		<circle class="st2" cx="776.4" cy="141.7" r="4.5"/>
		<circle class="st34" cx="776.4" cy="141.7" r="2.8"/>
	</g>
	<path class="st35" d="M669.3,119.6v22.3h13v-4.3c0-3.9,3.2-7.1,7.1-7.1h14.3v-24.7h-29.4L669.3,119.6z"/>
	<rect x="691.1" y="105.7" class="st36" width="0.6" height="24.7"/>
	<rect x="693.4" y="108.1" class="st37" width="8.4" height="11.4"/>
	<polygon class="st37" points="688.1,108.1 688.1,119.5 673.1,119.5 676.3,108.1 	"/>
	<path class="st36" d="M674.3,105.7h29.4v-3.2H678c-1.6,0-3,1-3.5,2.5L674.3,105.7z"/>
	
		<rect x="705.4" y="96.3" transform="matrix(-1 -1.224647e-16 1.224647e-16 -1 1495.7574 226.7274)" class="st35" width="84.9" height="34"/>
	<g>
		<rect x="707.3" y="98.2" class="st38" width="2" height="30.2"/>
		<rect x="711.7" y="98.2" class="st38" width="2" height="30.2"/>
		<rect x="716.1" y="98.2" class="st38" width="2" height="30.2"/>
		<rect x="720.5" y="98.2" class="st38" width="2" height="30.2"/>
		<rect x="724.9" y="98.2" class="st38" width="2" height="30.2"/>
		<rect x="729.3" y="98.2" class="st38" width="2" height="30.2"/>
		<rect x="733.7" y="98.2" class="st38" width="2" height="30.2"/>
		<rect x="738.1" y="98.2" class="st38" width="2" height="30.2"/>
		<rect x="742.5" y="98.2" class="st38" width="2" height="30.2"/>
		<rect x="746.9" y="98.2" class="st38" width="2" height="30.2"/>
		<rect x="751.3" y="98.2" class="st38" width="2" height="30.2"/>
		<rect x="755.7" y="98.2" class="st38" width="2" height="30.2"/>
		<rect x="760.1" y="98.2" class="st38" width="2" height="30.2"/>
		<rect x="764.5" y="98.2" class="st38" width="2" height="30.2"/>
		<rect x="768.9" y="98.2" class="st38" width="2" height="30.2"/>
		<rect x="773.3" y="98.2" class="st38" width="2" height="30.2"/>
		<rect x="777.7" y="98.2" class="st38" width="2" height="30.2"/>
		<rect x="782.1" y="98.2" class="st38" width="2" height="30.2"/>
		<rect x="786.5" y="98.2" class="st38" width="2" height="30.2"/>
	</g>
	<path class="st37" d="M679.9,122.1h3.8c0.5,0,0.9,0.4,0.9,0.9l0,0c0,0.5-0.4,0.9-0.9,0.9h-3.8c-0.5,0-0.9-0.4-0.9-0.9l0,0
		C679,122.5,679.4,122.1,679.9,122.1z"/>
	<path class="st32" d="M669.6,134.8h10.3v8.4h-4.8c-3.8,0-6.9-3.1-6.9-6.9v0C668.1,135.4,668.8,134.8,669.6,134.8z"/>
	<g>
		
			<rect x="702.5" y="131.9" transform="matrix(-1 -1.224647e-16 1.224647e-16 -1 1425.6924 273.6084)" class="st32" width="20.8" height="9.8"/>
		
			<rect x="702.5" y="138.8" transform="matrix(-1 -1.224647e-16 1.224647e-16 -1 1425.6924 280.458)" class="st33" width="20.8" height="3"/>
		
			<rect x="702.5" y="131.9" transform="matrix(-1 -1.224647e-16 1.224647e-16 -1 1425.6924 266.7587)" class="st39" width="20.8" height="3"/>
	</g>
	<polygon class="st34" points="720.8,131.9 720.8,134.9 720.8,138.8 720.8,141.7 719.1,141.7 719.1,138.8 719.1,134.9 719.1,131.9 	
		"/>
	<polygon class="st34" points="708.2,131.9 708.2,134.9 708.2,138.8 708.2,141.7 706.5,141.7 706.5,138.8 706.5,134.9 706.5,131.9 	
		"/>
	<path class="st40" d="M669.3,125.5v7.1h2.8c1.1,0,2-0.9,2-2v-5.1H669.3z"/>
</g>
</svg>
